<?xml version="1.0" encoding="utf-8"?>
<!-- Generator: Adobe Illustrator 22.0.1, SVG Export Plug-In . SVG Version: 6.00 Build 0)  -->
<svg version="1.1" id="Capa_1" xmlns="http://www.w3.org/2000/svg" xmlns:xlink="http://www.w3.org/1999/xlink" x="0px" y="0px"
	 viewBox="0 0 512 512" style="enable-background:new 0 0 512 512;" xml:space="preserve">
<style type="text/css">
	.st0{fill:#FFFFFF;}
</style>
<g>
	<g id="XMLID_1_">
		<g>
			<path class="st0" d="M483.4,233.5v45h-0.1c0,1.4-1,2.6-2.3,2.8l-44.9,7.5c-5.7,1-10.2,5.1-11.5,10.6
				c-4.1,15.7-10.3,30.8-18.6,44.8c-2.9,4.9-2.7,11,0.6,15.7l26.4,37.2c0.8,1.1,0.6,2.7-0.3,3.6l-31.9,31.9c-0.8,0.8-1.5,0.8-2,0.8
				c-0.6,0-1.2-0.2-1.6-0.5L360,406.5c-4.6-3.3-10.8-3.5-15.7-0.6c-14,8.3-29.1,14.5-44.8,18.6c-5.6,1.4-9.7,6-10.6,11.5l-7.6,44.9
				c-0.2,1.4-1.4,2.3-2.8,2.3h-45c-1.4,0-2.6-1-2.8-2.3l-7.5-44.9c-1-5.7-5.1-10.2-10.6-11.5c-15.3-4-30.1-10.1-43.9-18
				c-2.2-1.3-4.8-1.9-7.3-1.9c-2.9,0-5.9,0.9-8.3,2.7l-37.4,26.6c-0.5,0.3-1.1,0.5-1.6,0.5c-0.4,0-1.3-0.1-2-0.9l-31.9-31.9
				c-1-1-1.1-2.5-0.3-3.6l26.3-36.9c3.3-4.7,3.5-10.9,0.6-15.8c-8.3-13.9-14.8-29-18.8-44.7c-1.5-5.4-6-9.6-11.5-10.6l-45.2-7.7
				c-1.4-0.2-2.4-1.4-2.4-2.8v-45c0-1.4,1-2.6,2.4-2.8l44.6-7.5c5.7-1,10.3-5.1,11.7-10.7c4-15.7,10.1-30.9,18.3-44.9
				c2.9-4.9,2.6-11-0.8-15.6l-26.6-37.4c-0.8-1.1-0.6-2.7,0.3-3.6l31.9-31.9c0.8-0.8,1.5-0.8,2-0.8c0.6,0,1.2,0.2,1.6,0.5l36.9,26.3
				c4.7,3.3,10.9,3.5,15.8,0.6c13.9-8.3,29-14.8,44.7-18.8c5.4-1.5,9.6-6,10.6-11.5l7.7-45.2c0.2-1.4,1.4-2.4,2.8-2.4h45
				c1.4,0,2.6,1,2.8,2.4l7.5,44.6c1,5.7,5.1,10.3,10.7,11.6c16.1,4.1,31.5,10.4,45.9,18.8c4.9,2.9,11,2.7,15.7-0.6L397.2,79
				c0.5-0.3,1.1-0.5,1.6-0.5c0.4,0,1.3,0.1,2,0.8l31.9,31.9c1,1,1.1,2.5,0.3,3.6L406.6,152c-3.3,4.6-3.5,10.8-0.6,15.7
				c8.4,14,14.5,29.1,18.6,44.8c1.4,5.6,6,9.7,11.6,10.6l44.9,7.6C482.5,230.9,483.4,232.1,483.4,233.5z M366.5,255.9
				c0-61-49.5-110.5-110.5-110.5c-61,0-110.5,49.5-110.5,110.5c0,61,49.5,110.5,110.5,110.5C317,366.4,366.5,316.9,366.5,255.9z"/>
			<path class="st0" d="M256,145.5c61,0,110.5,49.5,110.5,110.5c0,61-49.5,110.5-110.5,110.5c-61,0-110.5-49.5-110.5-110.5
				C145.6,195,195.1,145.5,256,145.5z M337.7,255.9c0-45-36.6-81.6-81.6-81.6s-81.6,36.6-81.6,81.6c0,45,36.6,81.6,81.6,81.6
				S337.7,301,337.7,255.9z"/>
		</g>
		<g>
		</g>
	</g>
</g>
</svg>
